<?xml version="1.0" encoding="utf-8"?>
<svg viewBox="68.163 90.735 296.739 262.417" xmlns="http://www.w3.org/2000/svg">
  <rect x="115.372" y="124.743" width="207.025" height="207.025" style="stroke: rgb(0, 0, 0);" rx="2.428" ry="2.428"/>
  <rect x="104.338" y="114.287" width="211.287" height="211.287" style="stroke: rgb(0, 0, 0); fill: rgb(245, 245, 245);" rx="1.041" ry="1.041"/>
  <rect x="104.533" y="113.448" width="211.287" height="29.646" style="stroke: rgb(0, 0, 0); fill: rgb(238, 234, 234);" rx="1.041" ry="1.041"/>
  <path d="M 118.86260833740235 162.91608276367188 L 118.84190521240234 160.96998901367186 L 122.17510833740235 160.96998901367186 Q 123.42764739990234 160.96998901367186 124.11085052490235 160.42135620117188 Q 124.79405364990234 159.8727233886719 124.79405364990234 158.86862182617188 Q 124.79405364990234 157.76100463867186 124.14708099365234 157.26412963867188 Q 123.50010833740234 156.7672546386719 122.14405364990235 156.7672546386719 L 119.67003021240234 156.7672546386719 L 119.67003021240234 169.68600463867188 L 116.99932708740235 169.68600463867188 L 116.99932708740235 154.61412963867187 L 122.14405364990235 154.61412963867187 Q 124.63878021240234 154.61412963867187 126.05176849365235 155.6027038574219 Q 127.46475677490234 156.59127807617188 127.46475677490234 158.69264526367186 Q 127.46475677490234 159.62428588867186 127.01446380615235 160.40065307617186 Q 126.56417083740234 161.17702026367186 125.68428802490234 161.66354370117188 Q 124.80440521240234 162.1500671386719 123.48975677490235 162.23287963867188 L 122.68233489990234 162.91608276367188 Z M 118.01378021240234 169.68600463867188 L 119.22491302490235 167.54323120117186 L 122.56846771240234 167.54323120117186 Q 123.85206146240235 167.54323120117186 124.50420989990235 166.9117858886719 Q 125.15635833740234 166.28034057617188 125.15635833740234 165.27623901367187 Q 125.15635833740234 164.54127807617186 124.89756927490234 164.0133483886719 Q 124.63878021240234 163.48541870117188 124.10049896240234 163.20075073242188 Q 123.56221771240234 162.91608276367188 122.68233489990234 162.91608276367188 L 119.74249114990235 162.91608276367188 L 119.76319427490235 160.96998901367186 L 123.57256927490235 160.96998901367186 L 124.17295989990234 161.71530151367188 Q 125.42549896240234 161.7360046386719 126.22774505615234 162.24323120117188 Q 127.02999114990234 162.75045776367188 127.42335052490235 163.55270385742188 Q 127.81670989990235 164.35494995117188 127.81670989990235 165.28659057617188 Q 127.81670989990235 167.45006713867187 126.42442474365234 168.5680358886719 Q 125.03213958740234 169.68600463867188 122.56846771240234 169.68600463867188 Z M 132.89271240234376 169.68600463867188 L 130.32552490234374 169.68600463867188 L 130.32552490234374 153.78600463867187 L 132.89271240234376 153.78600463867187 Z M 135.11349182128907 163.98229370117187 Q 135.11349182128907 162.34674682617188 135.73458557128907 161.0631530761719 Q 136.35567932128907 159.77955932617186 137.52023010253907 159.02907104492186 Q 138.68478088378907 158.27858276367186 140.32032775878906 158.27858276367186 Q 141.97657775878906 158.27858276367186 143.14630432128905 159.02907104492186 Q 144.31603088378907 159.77955932617186 144.93194885253905 161.0631530761719 Q 145.54786682128906 162.34674682617188 145.54786682128906 163.98229370117187 L 145.54786682128906 164.19967651367188 Q 145.54786682128906 165.8248718261719 144.93194885253905 167.11364135742187 Q 144.31603088378907 168.40241088867188 143.15148010253907 169.14772338867186 Q 141.98692932128907 169.89303588867188 140.34103088378907 169.89303588867188 Q 138.69513244628905 169.89303588867188 137.52540588378906 169.14772338867186 Q 136.35567932128907 168.40241088867188 135.73458557128907 167.11364135742187 Q 135.11349182128907 165.8248718261719 135.11349182128907 164.19967651367188 Z M 137.68067932128906 164.19967651367188 Q 137.68067932128906 165.19342651367188 137.96017150878907 166.01637573242186 Q 138.23966369628906 166.83932495117188 138.82452697753905 167.33619995117186 Q 139.40939025878907 167.83307495117188 140.34103088378907 167.83307495117188 Q 141.26231994628907 167.83307495117188 141.84718322753906 167.33619995117186 Q 142.43204650878906 166.83932495117188 142.70636291503905 166.01637573242186 Q 142.98067932128907 165.19342651367188 142.98067932128907 164.19967651367188 L 142.98067932128907 163.98229370117187 Q 142.98067932128907 162.99889526367187 142.70636291503905 162.17077026367187 Q 142.43204650878906 161.34264526367187 141.84200744628907 160.84059448242186 Q 141.25196838378906 160.3385437011719 140.32032775878906 160.3385437011719 Q 139.39903869628907 160.3385437011719 138.81417541503907 160.84059448242186 Q 138.22931213378905 161.34264526367187 137.95499572753906 162.17077026367187 Q 137.68067932128906 162.99889526367187 137.68067932128906 163.98229370117187 Z M 157.12130737304688 158.48561401367186 L 157.12130737304688 169.36510620117187 Q 157.12130737304688 170.87643432617188 156.4691589355469 171.93746948242188 Q 155.81701049804687 172.99850463867188 154.66281127929688 173.54713745117186 Q 153.50861206054688 174.09577026367188 151.98693237304687 174.09577026367188 Q 151.3451354980469 174.09577026367188 150.56359252929687 173.91461791992188 Q 149.78204956054688 173.73346557617188 149.04708862304688 173.3297546386719 Q 148.31212768554687 172.92604370117186 147.81525268554688 172.27389526367188 L 149.0160339355469 170.72116088867188 Q 149.61642456054688 171.4147155761719 150.3358581542969 171.7511413574219 Q 151.05529174804687 172.0875671386719 151.85236206054688 172.0875671386719 Q 153.1049011230469 172.0875671386719 153.82433471679687 171.39401245117188 Q 154.54376831054688 170.70045776367186 154.54376831054688 169.40651245117186 L 154.54376831054688 161.03209838867187 L 154.78185424804687 158.48561401367186 Z M 147.18380737304688 163.99264526367188 Q 147.18380737304688 162.29498901367188 147.72726440429688 161.00621948242187 Q 148.27072143554688 159.7174499511719 149.27999877929688 158.99801635742188 Q 150.28927612304688 158.27858276367186 151.67638549804687 158.27858276367186 Q 152.77365112304688 158.27858276367186 153.55001831054688 158.67711791992187 Q 154.32638549804688 159.07565307617188 154.8387878417969 159.81578979492187 Q 155.35119018554687 160.55592651367186 155.64620971679688 161.57555541992187 Q 155.94122924804688 162.59518432617188 156.08615112304688 163.82702026367187 L 156.08615112304688 164.4274108886719 Q 155.8998229980469 166.02155151367188 155.39259643554686 167.25338745117188 Q 154.88536987304687 168.48522338867187 153.96925659179686 169.1891296386719 Q 153.0531433105469 169.89303588867188 151.6556823730469 169.89303588867188 Q 150.28927612304688 169.89303588867188 149.28517456054686 169.15289916992188 Q 148.28107299804688 168.4127624511719 147.73244018554686 167.12916870117186 Q 147.18380737304688 165.84557495117187 147.18380737304688 164.21002807617188 Z M 149.75099487304686 164.21002807617188 Q 149.75099487304686 165.2037780761719 150.02013549804687 166.01637573242186 Q 150.28927612304688 166.82897338867187 150.8534362792969 167.31032104492186 Q 151.41759643554687 167.7916687011719 152.30783081054688 167.7916687011719 Q 153.17736206054687 167.7916687011719 153.7259948730469 167.42418823242187 Q 154.27462768554688 167.05670776367188 154.5799987792969 166.42526245117188 Q 154.88536987304687 165.79381713867187 154.99923706054688 165.00709838867186 L 154.99923706054688 163.25768432617187 Q 154.93712768554687 162.63659057617187 154.75597534179687 162.10866088867186 Q 154.57482299804687 161.5807312011719 154.24874877929688 161.19772338867188 Q 153.92267456054688 160.81471557617186 153.44650268554688 160.5973327636719 Q 152.97033081054687 160.37994995117188 152.3285339355469 160.37994995117188 Q 151.43829956054688 160.37994995117188 150.86896362304688 160.86129760742188 Q 150.29962768554688 161.34264526367187 150.0253112792969 162.16559448242188 Q 149.75099487304686 162.98854370117186 149.75099487304686 163.99264526367188 Z" transform="matrix(1, 0, 0, 1, 0, 0)" style="white-space: pre;"/>
  <rect x="117.727" y="183.79" width="170.771" height="2.622" style="stroke: rgb(0, 0, 0);"/>
  <rect x="117.289" y="196.249" width="183.234" height="2.813" style="stroke: rgb(0, 0, 0);"/>
  <rect x="117.416" y="208.892" width="142.239" height="2.184" style="stroke: rgb(0, 0, 0);"/>
  <rect x="117.893" y="224.159" width="180.45" height="77.235" style="stroke: rgb(0, 0, 0); fill: rgb(255, 255, 255);"/>
  <rect x="139.978" y="9.686" width="71.705" height="28.609" style="stroke: rgb(0, 0, 0); fill: rgb(222, 222, 222);" rx="1.041" ry="1.041" transform="matrix(0.799815, -0.600247, 0.600247, 0.799815, 167.62883, 305.337769)"/>
  <path d="M 169.039 138.199 L 182.672 160.506 L 155.405 160.506 L 169.039 138.199 Z" style="stroke: rgb(0, 0, 0); fill: rgb(238, 238, 238);" transform="matrix(-0.609668, -0.792657, 0.792657, -0.609668, 269.792969, 472.397247)"/>
  <rect x="-135.708" y="-464.073" width="71.287" height="4.58" style="stroke: rgb(0, 0, 0);" transform="matrix(0.814086, -0.580744, -0.537623, -0.844847, 159.197342, -224.761139)"/>
  <rect x="135.708" y="464.073" width="71.287" height="4.58" style="stroke: rgb(0, 0, 0);" transform="matrix(0.814086, -0.580744, -0.537623, -0.844847, 430.615753, 708.52002)"/>
  <path d="M 45.805 46.452 L 49.499 53.949 L 42.11 53.949 L 45.805 46.452 Z" style="stroke: rgb(0, 0, 0);" transform="matrix(-0.609668, -0.792657, 0.792657, -0.609668, 266.984406, 319.072113)"/>
</svg>